<?xml version="1.0" encoding="utf-8"?>
<!-- Svg Vector Icons : http://www.onlinewebfonts.com/icon -->
<!DOCTYPE svg PUBLIC "-//W3C//DTD SVG 1.1//EN" "http://www.w3.org/Graphics/SVG/1.1/DTD/svg11.dtd">
<svg version="1.1" xmlns="http://www.w3.org/2000/svg" xmlns:xlink="http://www.w3.org/1999/xlink" x="0px" y="0px" viewBox="0 0 1000 1000" enable-background="new 0 0 1000 1000" xml:space="preserve">
<metadata> Svg Vector Icons : http://www.onlinewebfonts.com/icon </metadata>
<g><g transform="translate(0.000000,511.000000) scale(0.100000,-0.100000)"><path d="M4918.5,5009c-37.4-8.6-109.4-57.6-164.1-109.4c-126.6-126.6-169.8-333.8-152.5-719.5c14.4-331,83.5-500.8,224.5-575.6c187.1-97.8,394.3-28.8,495,166.9c57.6,106.5,63.3,164,63.3,509.4c0,319.5-8.6,408.7-51.8,497.9C5249.5,4945.7,5085.4,5037.8,4918.5,5009z"/><path d="M1375.7,3837.7c-166.9-92.1-198.6-359.8-63.3-567c109.4-169.8,463.4-506.5,590-558.3c54.7-23,155.4-43.2,221.6-43.2c95,0,135.3,17.3,215.9,97.9c80.6,80.6,97.8,120.9,97.8,215.8c0,181.3-66.2,302.2-279.2,526.7c-261.9,273.4-414.4,368.4-581.3,368.4C1502.3,3875.1,1413.1,3857.8,1375.7,3837.7z"/><path d="M8162,3794.5c-169.8-109.4-506.6-463.4-558.3-590c-23-54.7-43.2-155.4-43.2-221.6c0-95,17.3-135.3,97.9-215.8c80.6-80.6,120.8-97.9,215.8-97.9c181.3,0,302.2,66.2,526.7,279.2c342.5,331,437.5,546.8,333.8,771.3C8654.2,3895.2,8375,3932.6,8162,3794.5z"/><path d="M4567.4,2769.9c-998.7-161.2-1810.3-854.8-2126.8-1813.1C1939.8-568.6,2855-2174.5,4432.1-2531.4c273.4-60.4,854.8-60.4,1134,2.9c1038.9,230.2,1839,1030.3,2069.3,2069.3c63.3,279.2,63.3,860.5,2.9,1133.9c-236,1036.1-1050.5,1853.4-2063.5,2069.3C5289.8,2804.5,4846.6,2816,4567.4,2769.9z M4999.1,107.8v-1957h-135.3c-213,0-489.3,77.7-756.9,207.2c-195.7,97.9-293.6,169.8-489.3,368.4c-397.2,394.3-575.6,823.1-575.6,1381.4c0,345.4,54.7,581.4,207.2,892.2c169.8,345.4,512.3,687.9,857.6,857.6c273.4,135.3,518,201.5,742.5,204.4l149.7,2.9V107.8z"/><path d="M428.8,479C143.9,410,11.5,122.1,164-96.6C270.5-243.4,397.2-280.8,826-277.9c345.4,0,402.9,5.7,509.4,63.3c135.3,71.9,210.1,187.1,210.1,322.3s-74.8,253.3-210.1,322.3c-100.7,51.8-178.4,63.3-451.9,69.1C702.2,504.9,497.9,493.4,428.8,479z"/><path d="M8812.5,484.8C8493,401.3,8352,116.4,8527.5-93.7c141-164.1,215.8-187.1,644.7-187.1c342.5,0,402.9,8.6,506.5,63.3c299.3,158.3,293.6,512.3-8.6,659.1C9549.2,499.2,8973.6,528,8812.5,484.8z"/><path d="M1830.4-2537.1c-152.5-97.9-489.3-443.2-552.6-569.9c-97.9-187.1-43.2-451.8,109.4-520.9c224.5-103.6,440.3-8.6,771.3,333.8c213,224.5,279.2,345.4,279.2,526.7c0,95-17.3,135.2-97.8,215.8c-83.5,83.4-118,97.8-238.9,97.8C1994.5-2453.7,1928.3-2473.8,1830.4-2537.1z"/><path d="M7658.4-2551.5c-83.5-83.5-97.9-118-97.9-230.2c0-178.4,54.7-279.2,284.9-518c250.4-259,408.7-362.7,566.9-362.7c241.8,0,356.9,112.2,356.9,354c0,161.2-100.7,319.5-368.4,575.6c-224.5,213-345.4,279.2-526.7,279.2C7779.2-2453.7,7739-2470.9,7658.4-2551.5z"/><path d="M4809.1-3400.5c-161.2-97.9-198.6-224.5-198.6-664.8c0-322.3,8.6-405.8,54.7-497.9c149.7-305.1,497.9-307.9,659.1-8.6c54.7,103.6,63.3,164,63.3,506.5c0,348.2-8.6,400-66.2,509.4C5215-3354.5,4993.3-3288.3,4809.1-3400.5z"/></g></g>
</svg>