<svg width="32" height="32" xmlns="http://www.w3.org/2000/svg">

 <g>
  <title>background</title>
  <rect fill="none" id="canvas_background" height="402" width="582" y="-1" x="-1"/>
 </g>
 <g>
  <title>Layer 1</title>
  <path fill="#ffffff" id="XMLID_294_" d="m13,16c0,1.654 1.346,3 3,3s3,-1.346 3,-3s-1.346,-3 -3,-3s-3,1.346 -3,3z"/>
  <path fill="#ffffff" id="XMLID_295_" d="m13,26c0,1.654 1.346,3 3,3s3,-1.346 3,-3s-1.346,-3 -3,-3s-3,1.346 -3,3z"/>
  <path fill="#ffffff" id="XMLID_297_" d="m13,6.057887c0,1.654 1.346,3 3,3s3,-1.346 3,-3s-1.346,-3 -3,-3s-3,1.346 -3,3z"/>
 </g>
</svg>