<svg width="10" height="27.999999999999996" xmlns="http://www.w3.org/2000/svg">

 <g>
  <title>background</title>
  <rect fill="none" id="canvas_background" height="30" width="12" y="-1" x="-1"/>
 </g>
 <g>
  <title>Layer 1</title>
  <path fill="#ffffff" id="XMLID_294_" d="m0.040733,13.841888c0,1.654 1.346,3 3,3s3,-1.346 3,-3s-1.346,-3 -3,-3s-3,1.346 -3,3z"/>
  <path fill="#ffffff" id="XMLID_295_" d="m0.040733,23.841888c0,1.654 1.346,3 3,3s3,-1.346 3,-3s-1.346,-3 -3,-3s-3,1.346 -3,3z"/>
  <path fill="#ffffff" id="XMLID_297_" d="m0.081466,3.841888c0,1.654 1.346,3 3,3s3,-1.346 3,-3s-1.346,-3 -3,-3s-3,1.346 -3,3z"/>
 </g>
</svg>